#N canvas 780 88 797 591 12;
#X obj 238 474 *~ 0.125;
#X obj 124 328 osc~;
#X floatatom 124 173 5 0 0 0 - - - 0;
#X obj 207 327 osc~;
#X floatatom 207 172 5 0 0 0 - - - 0;
#X obj 293 332 osc~;
#X floatatom 293 177 5 0 0 0 - - - 0;
#X obj 369 333 osc~;
#X floatatom 369 178 5 0 0 0 - - - 0;
#X obj 448 341 osc~;
#X floatatom 448 186 5 0 0 0 - - - 0;
#X obj 527 336 osc~;
#X floatatom 527 181 5 0 0 0 - - - 0;
#X floatatom 229 72 5 0 0 0 - - - 0;
#X obj 229 17 inlet;
#X obj 238 499 outlet~;
#X obj 39 132 osc~ 398;
#X obj 123 400 *~ 0.1659;
#X obj 206 399 *~ 0.16883;
#X obj 292 404 *~ 0.16391;
#X obj 368 405 *~ 0.17487;
#X obj 447 407 *~ 0.18929;
#X obj 526 408 *~ 0.15951;
#X obj 124 145 * 2.2;
#X obj 206 143 * 2.21;
#X obj 293 144 * 2.18;
#X obj 369 141 * 2.31;
#X obj 448 141 * 2.49;
#X obj 527 141 * 2.12;
#X obj 682 347 osc~;
#X obj 124 373 *~;
#X obj 207 372 *~;
#X obj 293 377 *~;
#X obj 369 378 *~;
#X obj 448 376 *~;
#X obj 527 381 *~;
#X floatatom 682 317 5 0 0 0 - - - 0;
#X obj 682 280 r AM;
#X obj 657 32 r FM;
#X obj 706 34 r DEPTH;
#X floatatom 657 57 5 0 0 0 - - - 0;
#X floatatom 706 59 5 0 0 0 - - - 0;
#X obj 657 94 osc~;
#X obj 657 139 *~;
#X obj 125 271 +~;
#X obj 299 292 +~;
#X obj 372 290 +~;
#X obj 449 286 +~;
#X obj 531 280 +~;
#X obj 201 272 +~;
#X connect 0 0 15 0;
#X connect 1 0 30 0;
#X connect 2 0 44 0;
#X connect 3 0 31 0;
#X connect 4 0 49 0;
#X connect 5 0 32 0;
#X connect 6 0 45 0;
#X connect 7 0 33 0;
#X connect 8 0 46 0;
#X connect 9 0 34 0;
#X connect 10 0 47 0;
#X connect 11 0 35 0;
#X connect 12 0 48 0;
#X connect 13 0 16 0;
#X connect 13 0 23 0;
#X connect 13 0 24 0;
#X connect 13 0 25 0;
#X connect 13 0 26 0;
#X connect 13 0 27 0;
#X connect 13 0 28 0;
#X connect 14 0 13 0;
#X connect 16 0 0 0;
#X connect 17 0 0 0;
#X connect 18 0 0 0;
#X connect 19 0 0 0;
#X connect 20 0 0 0;
#X connect 21 0 0 0;
#X connect 22 0 0 0;
#X connect 23 0 2 0;
#X connect 24 0 4 0;
#X connect 25 0 6 0;
#X connect 26 0 8 0;
#X connect 27 0 10 0;
#X connect 28 0 12 0;
#X connect 29 0 30 1;
#X connect 29 0 31 1;
#X connect 29 0 32 1;
#X connect 29 0 33 1;
#X connect 29 0 34 1;
#X connect 29 0 35 1;
#X connect 30 0 17 0;
#X connect 31 0 18 0;
#X connect 32 0 19 0;
#X connect 33 0 20 0;
#X connect 34 0 21 0;
#X connect 36 0 29 0;
#X connect 37 0 36 0;
#X connect 38 0 40 0;
#X connect 39 0 41 0;
#X connect 40 0 42 0;
#X connect 41 0 43 1;
#X connect 42 0 43 0;
#X connect 43 0 44 1;
#X connect 43 0 49 1;
#X connect 43 0 45 1;
#X connect 43 0 46 1;
#X connect 43 0 47 1;
#X connect 43 0 48 1;
#X connect 44 0 1 0;
#X connect 45 0 5 0;
#X connect 46 0 7 0;
#X connect 47 0 9 0;
#X connect 48 0 11 0;
#X connect 49 0 3 0;
