#N canvas 736 199 726 451 12;
#X obj 238 394 *~ 0.125;
#X obj 124 198 osc~;
#X floatatom 124 173 5 0 0 0 - - - 0;
#X obj 207 197 osc~;
#X floatatom 207 172 5 0 0 0 - - - 0;
#X obj 293 202 osc~;
#X floatatom 293 177 5 0 0 0 - - - 0;
#X obj 369 203 osc~;
#X floatatom 369 178 5 0 0 0 - - - 0;
#X obj 448 211 osc~;
#X floatatom 448 186 5 0 0 0 - - - 0;
#X obj 527 206 osc~;
#X floatatom 527 181 5 0 0 0 - - - 0;
#X floatatom 229 72 5 0 0 0 - - - 0;
#X obj 124 145 * 1.77;
#X obj 206 143 * 1.805;
#X obj 293 144 * 1.842;
#X obj 369 141 * 1.903;
#X obj 448 141 * 2.069;
#X obj 529 141 * 1.765;
#X obj 229 17 inlet;
#X obj 238 419 outlet~;
#X obj 19 272 osc~ 398;
#X obj 123 270 *~ 0.1659;
#X obj 206 269 *~ 0.16883;
#X obj 292 274 *~ 0.16391;
#X obj 368 275 *~ 0.17487;
#X obj 447 277 *~ 0.18929;
#X obj 526 278 *~ 0.15951;
#X obj 630 204 osc~;
#X floatatom 630 174 5 0 0 0 - - - 0;
#X obj 148 238 *~;
#X obj 230 237 *~;
#X obj 308 241 *~;
#X obj 379 242 *~;
#X obj 466 247 *~;
#X obj 539 245 *~;
#X obj 630 137 r AM1;
#X obj 632 334 osc~;
#X floatatom 632 304 5 0 0 0 - - - 0;
#X obj 632 267 r AM2;
#X obj 244 354 *~;
#X connect 0 0 21 0;
#X connect 1 0 31 0;
#X connect 2 0 1 0;
#X connect 3 0 32 0;
#X connect 4 0 3 0;
#X connect 5 0 33 0;
#X connect 6 0 5 0;
#X connect 7 0 34 0;
#X connect 8 0 7 0;
#X connect 9 0 35 0;
#X connect 10 0 9 0;
#X connect 11 0 36 0;
#X connect 12 0 11 0;
#X connect 13 0 14 0;
#X connect 13 0 15 0;
#X connect 13 0 16 0;
#X connect 13 0 17 0;
#X connect 13 0 18 0;
#X connect 13 0 19 0;
#X connect 13 0 22 0;
#X connect 14 0 2 0;
#X connect 15 0 4 0;
#X connect 16 0 6 0;
#X connect 17 0 8 0;
#X connect 18 0 10 0;
#X connect 19 0 12 0;
#X connect 20 0 13 0;
#X connect 22 0 41 0;
#X connect 23 0 41 0;
#X connect 24 0 41 0;
#X connect 25 0 41 0;
#X connect 26 0 41 0;
#X connect 27 0 41 0;
#X connect 28 0 41 0;
#X connect 29 0 31 1;
#X connect 29 0 32 1;
#X connect 29 0 33 1;
#X connect 29 0 34 1;
#X connect 29 0 35 1;
#X connect 29 0 36 1;
#X connect 30 0 29 0;
#X connect 31 0 23 0;
#X connect 32 0 24 0;
#X connect 33 0 25 0;
#X connect 34 0 26 0;
#X connect 35 0 27 0;
#X connect 36 0 28 0;
#X connect 37 0 30 0;
#X connect 38 0 41 1;
#X connect 39 0 38 0;
#X connect 40 0 39 0;
#X connect 41 0 0 0;
