#N canvas 14 82 757 585 12;
#X text 711 105 FM DRONE 1;
#X floatatom 188 577 5 0 0 0 - - - 0;
#X obj 205 512 bng 15 250 50 0 empty empty empty 17 7 0 10 #fcfcfc
#000000 #000000;
#X obj 369 495 bng 15 250 50 0 empty empty empty 17 7 0 10 #fcfcfc
#000000 #000000;
#X msg 388 611 1 \$2 \, \$4 \$3 \$2;
#X obj 143 147 vsl 15 128 0.1 3000 1 0 empty empty A 0 -9 0 10 #0400ff
#000000 #000000 0 0;
#X obj 388 562 pack f f f f;
#X obj 178 148 vsl 15 128 0.1 1000 1 0 empty empty D 0 -9 0 10 #0400ff
#000000 #000000 0 0;
#X obj 219 148 vsl 15 128 0.01 1 1 0 empty empty S 0 -9 0 10 #0400ff
#000000 #000000 0 0;
#X obj 257 148 vsl 15 128 100 10000 1 0 empty empty R 0 -9 0 10 #0400ff
#000000 #000000 0 0;
#X floatatom 430 398 5 0 0 0 - - - 0;
#X floatatom 456 375 8 0 0 0 - - - 0;
#X floatatom 572 362 8 0 0 0 - - - 0;
#X floatatom 659 357 8 0 0 0 - - - 0;
#X obj 528 566 bng 15 250 50 0 empty empty empty 17 7 0 10 #fcfcfc
#000000 #000000;
#X msg 528 613 0 \$2;
#X obj 528 586 pack f f;
#X obj 184 684 *~;
#X obj 528 527 delay 1000 1 msec;
#X obj 146 295 hsl 128 15 20 8500 0 0 empty empty LPF -2 -8 0 10 #0400ff
#000000 #000000 0 0;
#X floatatom 12 109 8 0 0 0 - - - 0;
#X obj 107 17 loadbang;
#X obj 194 30 loadbang;
#X obj 275 23 loadbang;
#X obj 347 23 loadbang;
#X obj 15 27 loadbang;
#X text 747 48 Add Syth 2021;
#X msg 109 64 50;
#X msg 183 67 650;
#X msg 278 63 0.7;
#X msg 337 61 560;
#X text 114 -12 A;
#X text 209 -1 D;
#X text 288 0 S;
#X text 361 -8 R;
#X obj 388 671 vline~;
#X obj 200 652 lop~, f 6;
#X obj 17 137 loadbang;
#X msg 17 168 80;
#X obj 146 325 hsl 128 15 50 5000 0 0 empty empty HPF -2 -8 0 10 #0400ff
#000000 #000000 0 0;
#X floatatom 17 209 5 0 0 0 - - - 0;
#X obj 127 631 hip~;
#X msg 12 57 250;
#X obj 206 539 Scale_Tuning;
#X obj 142 606 Add_Synth2024;
#X obj 146 358 hsl 128 15 0 1000 0 0 empty empty AM -2 -8 0 10 #0400ff
#000000 #000000 0 0;
#X obj 17 257 loadbang;
#X msg 17 282 0;
#X floatatom 17 337 5 0 0 0 - - - 0;
#X obj 17 361 s AM;
#X obj 190 720 s~ DRONE1;
#X obj 205 471 r whole_note;
#X obj 145 390 hsl 128 15 0 500 0 0 empty empty FM -2 -8 0 10 #0400ff
#000000 #000000 0 0;
#X obj 27 500 loadbang;
#X msg 27 525 0;
#X floatatom 27 580 5 0 0 0 - - - 0;
#X obj 27 604 s FM;
#X obj 145 425 hsl 128 15 0 1000 0 0 empty empty DEPTH -2 -8 0 10 #0400ff
#000000 #000000 0 0;
#X obj 14 390 loadbang;
#X msg 14 415 0;
#X floatatom 14 450 5 0 0 0 - - - 0;
#X obj 14 474 s DEPTH;
#X text 186 110 DRONE;
#X connect 1 0 44 0;
#X connect 2 0 3 0;
#X connect 2 0 43 0;
#X connect 3 0 6 0;
#X connect 3 0 18 0;
#X connect 4 0 35 0;
#X connect 5 0 10 0;
#X connect 6 0 4 0;
#X connect 7 0 11 0;
#X connect 8 0 12 0;
#X connect 9 0 13 0;
#X connect 10 0 6 1;
#X connect 11 0 6 2;
#X connect 12 0 6 3;
#X connect 13 0 16 1;
#X connect 14 0 16 0;
#X connect 15 0 35 0;
#X connect 16 0 15 0;
#X connect 17 0 50 0;
#X connect 18 0 14 0;
#X connect 19 0 20 0;
#X connect 20 0 36 1;
#X connect 21 0 27 0;
#X connect 22 0 28 0;
#X connect 23 0 29 0;
#X connect 24 0 30 0;
#X connect 25 0 42 0;
#X connect 27 0 10 0;
#X connect 27 0 5 0;
#X connect 28 0 11 0;
#X connect 28 0 7 0;
#X connect 29 0 12 0;
#X connect 29 0 8 0;
#X connect 30 0 13 0;
#X connect 30 0 9 0;
#X connect 35 0 17 1;
#X connect 36 0 17 0;
#X connect 37 0 38 0;
#X connect 38 0 40 0;
#X connect 38 0 39 0;
#X connect 39 0 40 0;
#X connect 40 0 41 1;
#X connect 41 0 36 0;
#X connect 42 0 20 0;
#X connect 42 0 19 0;
#X connect 43 0 1 0;
#X connect 44 0 41 0;
#X connect 45 0 48 0;
#X connect 46 0 47 0;
#X connect 47 0 45 0;
#X connect 47 0 48 0;
#X connect 48 0 49 0;
#X connect 51 0 2 0;
#X connect 52 0 55 0;
#X connect 53 0 54 0;
#X connect 54 0 55 0;
#X connect 54 0 52 0;
#X connect 55 0 56 0;
#X connect 57 0 60 0;
#X connect 58 0 59 0;
#X connect 59 0 60 0;
#X connect 59 0 57 0;
#X connect 60 0 61 0;
#X coords 0 -1 1 1 214 354 2 100 100;
