#N canvas 516 211 956 520 12;
#X obj 3 -27 loadbang;
#X msg 3 -2 60000;
#X obj 100 42 loadbang;
#X floatatom 232 126 5 0 0 0 - - - 0;
#X obj 204 18 /;
#X floatatom 204 43 5 0 0 0 - - - 0;
#X obj 308 3 bng 15 250 50 0 empty empty empty 17 7 0 10 #fcfcfc #000000
#000000;
#X obj 162 120 tgl 30 0 empty empty empty 17 7 0 10 #fcfcfc #000000
#000000 0 1;
#X text 141 148 Start/Stop;
#X obj 5 185 s ON;
#X obj 204 67 s 4th_time;
#X msg 100 67 60;
#X text 234 148 BPM;
#X obj 353 -25 r ON;
#X obj 385 -107 r 4th_time;
#X obj 385 -82 * 4;
#X floatatom 385 -57 5 0 0 0 - - - 0;
#X obj 396 -27 s whole_time;
#X obj 353 55 metro;
#X obj 201 181 bng 25 250 50 0 empty empty empty 17 7 0 10 #00ff04
#000000 #000000;
#X obj 646 251 s whole_note;
#X obj 403 5 r ON;
#X obj 450 6 r 4th_time;
#X floatatom 450 56 5 0 0 0 - - - 0;
#X obj 403 55 metro;
#X obj 627 153 bng 25 250 50 0 empty empty empty 17 7 0 10 #abff90
#000000 #000000;
#X obj 450 31 * 1;
#X obj 809 122 s 4th_note;
#X obj 533 -20 r ON;
#X obj 585 -19 r 4th_time;
#X floatatom 585 31 5 0 0 0 - - - 0;
#X obj 533 50 metro;
#X obj 476 182 bng 25 250 50 0 empty empty empty 17 7 0 10 #0400ff
#000000 #000000;
#X obj 585 6 * 2;
#X obj 770 226 s 2nd_note;
#X obj 672 -17 r ON;
#X obj 719 -16 r 4th_time;
#X floatatom 719 34 5 0 0 0 - - - 0;
#X obj 672 53 metro;
#X obj 665 154 bng 25 250 50 0 empty empty empty 17 7 0 10 #aec4ff
#000000 #000000;
#X obj 844 157 s 8th_note;
#X obj 719 9 * 0.5;
#X text 531 180 Whole;
#X text 629 178 4th;
#X text 589 180 2nd;
#X text 666 180 8th;
#X obj 115 583 *~ 0.125;
#X obj 208 580 *~ 0.25;
#X obj 81 496 r~ SUB;
#X obj 169 230 vsl 30 150 0 1 0 0 empty empty SUB 0 -9 0 10 #ff0400
#000000 #000000 0 1;
#X obj 233 230 vsl 30 150 0 1 0 0 empty empty DRONE 0 -9 0 10 #faff00
#000000 #000000 0 0;
#X floatatom 167 386 5 0 0 0 - - - 0;
#X floatatom 233 386 5 0 0 0 - - - 0;
#X obj 174 497 r~ DRONE1;
#X obj 131 472 osc~;
#X floatatom 131 442 5 0 0 0 - - - 0;
#X obj 114 539 *~;
#X obj 139 256 vsl 15 128 0 100 0 0 empty empty AM 0 -9 0 10 #ff0400
#000000 #000000 0 0;
#X obj 182 611 dac~;
#X obj 284 476 osc~;
#X floatatom 284 446 5 0 0 0 - - - 0;
#X obj 207 547 *~;
#X obj 286 256 vsl 15 128 0 100 0 0 empty empty AM 0 -9 0 10 #faff00
#000000 #000000 0 0;
#X connect 0 0 1 0;
#X connect 1 0 4 0;
#X connect 2 0 11 0;
#X connect 3 0 4 1;
#X connect 3 0 6 0;
#X connect 4 0 5 0;
#X connect 5 0 10 0;
#X connect 6 0 4 0;
#X connect 7 0 9 0;
#X connect 11 0 3 0;
#X connect 13 0 18 0;
#X connect 14 0 15 0;
#X connect 15 0 16 0;
#X connect 16 0 17 0;
#X connect 16 0 18 1;
#X connect 18 0 19 0;
#X connect 19 0 20 0;
#X connect 21 0 24 0;
#X connect 22 0 26 0;
#X connect 23 0 24 1;
#X connect 24 0 25 0;
#X connect 25 0 27 0;
#X connect 26 0 23 0;
#X connect 28 0 31 0;
#X connect 29 0 33 0;
#X connect 30 0 31 1;
#X connect 31 0 32 0;
#X connect 32 0 34 0;
#X connect 33 0 30 0;
#X connect 35 0 38 0;
#X connect 36 0 41 0;
#X connect 37 0 38 1;
#X connect 38 0 39 0;
#X connect 39 0 40 0;
#X connect 41 0 37 0;
#X connect 46 0 58 0;
#X connect 47 0 58 1;
#X connect 48 0 56 0;
#X connect 49 0 51 0;
#X connect 50 0 52 0;
#X connect 51 0 46 1;
#X connect 52 0 47 1;
#X connect 53 0 61 0;
#X connect 54 0 56 1;
#X connect 55 0 54 0;
#X connect 56 0 46 0;
#X connect 57 0 55 0;
#X connect 59 0 61 1;
#X connect 60 0 59 0;
#X connect 61 0 47 0;
#X connect 62 0 60 0;
#X coords 0 -1 1 1 227 337 2 100 100;
