#N canvas 306 407 564 394 12;
#X obj 230 19 inlet;
#X obj 230 47 bng 30 250 50 0 empty empty empty 17 7 0 10 #fcfcfc #000000
#000000;
#X floatatom 230 107 5 0 0 0 - - - 0;
#X obj 53 163 sel 0;
#X obj 107 163 sel 1;
#X obj 156 163 sel 2;
#X obj 209 165 sel 3;
#X obj 262 165 sel 4;
#X obj 317 165 sel 5;
#X obj 370 165 sel 6;
#X obj 422 166 sel 7;
#X msg 107 188 141.2;
#X msg 53 188 129.5;
#X msg 156 188 154.2;
#X msg 209 190 165.9;
#X msg 262 190 180;
#X msg 317 190 185.9;
#X msg 370 190 195.2;
#X msg 422 191 210.5;
#X floatatom 233 257 5 0 0 0 - - - 0;
#X obj 233 312 outlet;
#X obj 477 166 sel 8;
#X msg 477 191 225.7;
#X obj 230 82 random 9;
#X connect 0 0 1 0;
#X connect 1 0 23 0;
#X connect 2 0 3 0;
#X connect 2 0 4 0;
#X connect 2 0 5 0;
#X connect 2 0 6 0;
#X connect 2 0 7 0;
#X connect 2 0 8 0;
#X connect 2 0 9 0;
#X connect 2 0 10 0;
#X connect 2 0 21 0;
#X connect 3 0 12 0;
#X connect 4 0 11 0;
#X connect 5 0 13 0;
#X connect 6 0 14 0;
#X connect 7 0 15 0;
#X connect 8 0 16 0;
#X connect 9 0 17 0;
#X connect 10 0 18 0;
#X connect 11 0 19 0;
#X connect 12 0 19 0;
#X connect 13 0 19 0;
#X connect 14 0 19 0;
#X connect 15 0 19 0;
#X connect 16 0 19 0;
#X connect 17 0 19 0;
#X connect 18 0 19 0;
#X connect 19 0 20 0;
#X connect 21 0 22 0;
#X connect 22 0 19 0;
#X connect 23 0 2 0;
